<?xml version="1.0" encoding="UTF-8"?>
<svg width="14px" height="14px" viewBox="0 0 14 14" version="1.1" xmlns="http://www.w3.org/2000/svg" xmlns:xlink="http://www.w3.org/1999/xlink">
    <!-- Generator: Sketch 63.1 (92452) - https://sketch.com -->
    <title>Arrow L</title>
    <desc>Created with Sketch.</desc>
    <g id="1200" stroke="none" stroke-width="1" fill="none" fill-rule="evenodd">
        <g id="01_Home_1200-7" transform="translate(-1050.000000, -3340.000000)" fill="#FFFFFF" fill-rule="nonzero">
            <g id="5" transform="translate(185.000000, 2876.000000)">
                <path d="M867.796292,470.1 L872.798708,465.5516 C873.165375,465.2087 873.179583,464.639 872.830333,464.279 C872.481542,463.91945 871.901292,463.90505 871.534167,464.24795 L865.537167,469.72695 C865.191125,470.06715 865,470.51895 865,471 C865,471.4806 865.191125,471.93285 865.553208,472.2879 L871.534625,477.7516 C871.712,477.91765 871.939333,478 872.166667,478 C872.408667,478 872.650667,477.9064 872.830792,477.72055 C873.180042,477.36055 873.165833,476.7913 872.799167,476.4484 L867.767417,471.9 L878.083333,471.9 C878.589333,471.9 879,471.4968 879,471 C879,470.5032 878.589333,470.1 878.083333,470.1 L867.796292,470.1 Z" id="Arrow-L"></path>
            </g>
        </g>
    </g>
</svg>