<svg xmlns="http://www.w3.org/2000/svg" width="26" height="19" viewBox="0 0 26 19"><g><g><g><path fill="#fff" d="M1 4a3 3 0 0 1 3-3h18a3 3 0 0 1 3 3v11a3 3 0 0 1-3 3H4a3 3 0 0 1-3-3z"/></g><g><path fill="#272830" d="M4 2h18a2 2 0 0 1 2 2v11a2 2 0 0 1-2 2H4a2 2 0 0 1-2-2V4a2 2 0 0 1 2-2zm18-2H4a4 4 0 0 0-4 4v11a4 4 0 0 0 4 4h18a4 4 0 0 0 4-4V4a4 4 0 0 0-4-4z"/></g><g><path fill="#272830" d="M5 6a1 1 0 0 1 1-1h3a1 1 0 0 1 0 2H6a1 1 0 0 1-1-1z"/></g><g><path fill="#272830" d="M12 6a1 1 0 0 1 1-1h2a1 1 0 0 1 0 2h-2a1 1 0 0 1-1-1z"/></g></g></g></svg>