<svg width="14px" height="14px" viewBox="0 0 14 14" version="1.1" xmlns="http://www.w3.org/2000/svg" xmlns:xlink="http://www.w3.org/1999/xlink">
    <g id="1200" stroke="none" stroke-width="1" fill="none" fill-rule="evenodd">
        <g id="01_Home_1200-7" transform="translate(-1114.000000, -3340.000000)" fill="#FFFFFF" fill-rule="nonzero">
            <g id="5" transform="translate(185.000000, 2876.000000)">
                <path d="M931.796292,470.100219 L936.798708,465.551819 C937.165375,465.208919 937.179583,464.639219 936.830333,464.279219 C936.481542,463.919669 935.901292,463.905269 935.534167,464.248169 L929.537167,469.727169 C929.191125,470.067369 929,470.519169 929,471.000219 C929,471.480819 929.191125,471.933069 929.553208,472.288119 L935.534625,477.751819 C935.712,477.917869 935.939333,478.000219 936.166667,478.000219 C936.408667,478.000219 936.650667,477.906619 936.830792,477.720769 C937.180042,477.360769 937.165833,476.791519 936.799167,476.448619 L931.767417,471.900219 L942.083333,471.900219 C942.589333,471.900219 943,471.497019 943,471.000219 C943,470.503419 942.589333,470.100219 942.083333,470.100219 L931.796292,470.100219 Z" id="Arrow-R" transform="translate(936.000000, 471.000110) rotate(-180.000000) translate(-936.000000, -471.000110) "></path>
            </g>
        </g>
    </g>
</svg>