<svg xmlns="http://www.w3.org/2000/svg" width="19" height="22" viewBox="0 0 19 22"><g><g><g><path fill="#fff" d="M2.659 0C1.204 0 .02 1.157.02 2.578v16.844C.02 20.843 1.204 22 2.659 22h16.317V0z"/></g><g><path fill="#272830" d="M17.217 20.281H2.659a.87.87 0 0 1-.88-.86V2.579a.87.87 0 0 1 .88-.86h14.558zM2.659 0C1.204 0 .02 1.157.02 2.578v16.844C.02 20.843 1.204 22 2.659 22h16.317V0z"/></g><g><path fill="#272830" d="M5.26 16.11h8.532v1.719H5.26z"/></g><g><path fill="#272830" d="M9.5 6a2.5 2.5 0 1 1 0 5 2.5 2.5 0 0 1 0-5zm0-2a4.5 4.5 0 1 0 0 9 4.5 4.5 0 0 0 0-9z"/></g></g></g></svg>