<svg xmlns="http://www.w3.org/2000/svg" width="70" height="60" viewBox="0 0 70 60">
  <defs>
    <radialGradient id="icon-credit-a" cx="19.279%" cy="0%" r="120.758%" fx="19.279%" fy="0%" gradientTransform="scale(-.72727 -1) rotate(55.566 -.036 -.435)">
      <stop offset="0%" stop-color="#FF7979"/>
      <stop offset="99.95%" stop-color="#FFF"/>
    </radialGradient>
    <linearGradient id="icon-credit-b" x1="50%" x2="50%" y1="0%" y2="100%">
      <stop offset="0%" stop-color="#FFF" stop-opacity=".53"/>
      <stop offset="100%" stop-color="#FFF" stop-opacity=".3"/>
    </linearGradient>
  </defs>
  <g fill="none" fill-rule="evenodd">
    <rect width="50" height="50" fill="#F24949" rx="6"/>
    <path fill="#FFF" d="M12.5,12 C13.3284271,12 14,12.6715729 14,13.5 L14,15 L15.5,15 C16.3284271,15 17,15.6715729 17,16.5 C17,17.3284271 16.3284271,18 15.5,18 L14,18 L14,19.5 C14,20.3284271 13.3284271,21 12.5,21 C11.6715729,21 11,20.3284271 11,19.5 L11,18 L9.5,18 C8.67157288,18 8,17.3284271 8,16.5 C8,15.6715729 8.67157288,15 9.5,15 L11,14.999 L11,13.5 C11,12.6715729 11.6715729,12 12.5,12 Z" opacity=".199"/>
    <text fill="#F9F4EF" font-family="MullerBlack, Muller" font-size="10" font-weight="700" letter-spacing=".333" opacity=".203">
      <tspan x="21" y="20">250</tspan>
    </text>
    <rect width="3" height="9" x="11" y="30" fill="#FFF" opacity=".199" rx="1.5" transform="rotate(90 12.5 34.5)"/>
    <text fill="#F9F4EF" font-family="MullerBlack, Muller" font-size="10" font-weight="700" letter-spacing=".333" opacity=".203">
      <tspan x="21" y="38">100</tspan>
    </text>
    <rect width="44" height="32" x="26" y="28" fill="url(#icon-credit-a)" rx="5"/>
    <rect width="44" height="32" x="26" y="28" fill="#F0E3D7" fill-opacity=".24" rx="5"/>
    <circle cx="59" cy="49" r="4" fill="url(#icon-credit-b)"/>
    <rect width="5" height="3" x="32" y="35" fill="#FFF" opacity=".57" rx="1.5"/>
    <rect width="5" height="3" x="41" y="35" fill="#FFF" opacity=".57" rx="1.5"/>
    <rect width="5" height="3" x="50" y="35" fill="#FFF" opacity=".57" rx="1.5"/>
    <rect width="5" height="3" x="59" y="35" fill="#FFF" opacity=".57" rx="1.5"/>
    <rect width="3" height="3" x="32" y="50" fill="#FFF" opacity=".57" rx="1.5"/>
    <rect width="7" height="3" x="38" y="50" fill="#FFF" opacity=".232" rx="1.5"/>
  </g>
</svg>
