<svg xmlns="http://www.w3.org/2000/svg" width="64" height="64" viewBox="0 0 64 64">
  <defs>
    <linearGradient id="icon-info-a" x1="50%" x2="50%" y1="2.394%" y2="99.95%">
      <stop offset="0%" stop-color="#FFF"/>
      <stop offset="99.95%" stop-color="#FF9191"/>
    </linearGradient>
  </defs>
  <g fill="none" fill-rule="evenodd">
    <rect width="49" height="53" y="11" fill="#F24949" rx="6"/>
    <path fill="#FFF" d="M25.5,24 L34.5,24 C35.3284271,24 36,24.6715729 36,25.5 C36,26.3284271 35.3284271,27 34.5,27 L25.5,27 C24.6715729,27 24,26.3284271 24,25.5 C24,24.6715729 24.6715729,24 25.5,24 Z" opacity=".199"/>
    <circle cx="15" cy="29" r="5" fill="#FFF" opacity=".199"/>
    <rect width="14" height="3" x="24" y="32" fill="#FFF" opacity=".199" rx="1.5"/>
    <rect width="28" height="3" x="10" y="40" fill="#FFF" opacity=".199" rx="1.5"/>
    <rect width="20" height="3" x="10" y="48" fill="#FFF" opacity=".199" rx="1.5"/>
    <path fill="url(#icon-info-a)" d="M63.8939227,9.76201399 C63.848663,8.7642704 63.848663,7.81187879 63.848663,6.85948718 C63.848663,6.0885035 63.2602873,5.49892774 62.4908729,5.49892774 C56.8334144,5.49892774 52.5337459,3.86625641 48.958232,0.374153846 C48.415116,-0.124717949 47.600442,-0.124717949 47.057326,0.374153846 C43.4818122,3.86625641 39.1821436,5.49892774 33.5246851,5.49892774 C32.7552707,5.49892774 32.166895,6.0885035 32.166895,6.85948718 C32.166895,7.81187879 32.166895,8.7642704 32.1216354,9.76201399 C31.9405967,19.2859301 31.6690387,32.3473007 47.5551823,37.8348904 L48.007779,37.9255944 L48.4603757,37.8348904 C64.3012597,32.3473007 64.0749613,19.3312821 63.8939227,9.76201399 Z"/>
    <path fill="#F0E3D7" fill-opacity=".24" d="M63.8939227,9.76201399 C63.848663,8.7642704 63.848663,7.81187879 63.848663,6.85948718 C63.848663,6.0885035 63.2602873,5.49892774 62.4908729,5.49892774 C56.8334144,5.49892774 52.5337459,3.86625641 48.958232,0.374153846 C48.415116,-0.124717949 47.600442,-0.124717949 47.057326,0.374153846 C43.4818122,3.86625641 39.1821436,5.49892774 33.5246851,5.49892774 C32.7552707,5.49892774 32.166895,6.0885035 32.166895,6.85948718 C32.166895,7.81187879 32.166895,8.7642704 32.1216354,9.76201399 C31.9405967,19.2859301 31.6690387,32.3473007 47.5551823,37.8348904 L48.007779,37.9255944 L48.4603757,37.8348904 C64.3012597,32.3473007 64.0749613,19.3312821 63.8939227,9.76201399 Z"/>
    <path fill="#FFF" d="M56.9774266,13.6627803 C56.9518511,13.084006 56.9518511,12.5315396 56.9518511,11.9790732 C56.9518511,11.5318386 56.6193691,11.1898356 56.184585,11.1898356 C52.987643,11.1898356 50.5579671,10.2427504 48.5374998,8.21704036 C48.2305934,7.92765321 47.7702337,7.92765321 47.4633273,8.21704036 C45.44286,10.2427504 43.0131841,11.1898356 39.8162421,11.1898356 C39.381458,11.1898356 39.048976,11.5318386 39.048976,11.9790732 C39.048976,12.5315396 39.048976,13.084006 39.0234005,13.6627803 C38.9210983,19.1874439 38.7676451,26.7641256 47.7446582,29.9473842 L48.0004136,30 L48.2561689,29.9473842 C57.2076065,26.7641256 57.0797288,19.2137519 56.9774266,13.6627803 Z" opacity=".57"/>
  </g>
</svg>
