<svg xmlns="http://www.w3.org/2000/svg" width="60" height="63" viewBox="0 0 60 63">
  <defs>
    <linearGradient id="icon-blank-a" x1="0%" x2="99.975%" y1="0%" y2="99.951%">
      <stop offset="0%" stop-color="#FFF"/>
      <stop offset="99.95%" stop-color="#FF9191"/>
    </linearGradient>
    <linearGradient id="icon-blank-b" x1="50%" x2="50%" y1="0%" y2="100%">
      <stop offset="0%" stop-color="#FFF" stop-opacity=".53"/>
      <stop offset="100%" stop-color="#FFF" stop-opacity=".3"/>
    </linearGradient>
  </defs>
  <g fill="none" fill-rule="evenodd">
    <rect width="49" height="53" x="11" y="10" fill="#F24949" rx="6"/>
    <path fill="#FFF" d="M25.5,25 L45.5,25 C46.3284271,25 47,25.6715729 47,26.5 C47,27.3284271 46.3284271,28 45.5,28 L25.5,28 C24.6715729,28 24,27.3284271 24,26.5 C24,25.6715729 24.6715729,25 25.5,25 Z" opacity=".199"/>
    <rect width="14" height="3" x="24" y="35" fill="#FFF" opacity=".199" rx="1.5"/>
    <rect width="18" height="3" x="24" y="45" fill="#FFF" opacity=".199" rx="1.5"/>
    <rect width="32" height="32" fill="url(#icon-blank-a)" rx="5"/>
    <rect width="32" height="32" fill="#F0E3D7" fill-opacity=".24" rx="5"/>
    <circle cx="16" cy="11" r="4" fill="#FFF" opacity=".57"/>
    <path fill="url(#icon-blank-b)" d="M16,16.5 C20.0609173,16.5 23.3680175,19.7274744 23.4961464,23.7572689 L23.5,24 L20.5,24 C20.5,21.5147186 18.4852814,19.5 16,19.5 C13.5857267,19.5 11.6155109,21.4012365 11.504898,23.7881643 L11.5,24 L8.5,24 C8.5,19.8578644 11.8578644,16.5 16,16.5 Z"/>
  </g>
</svg>
