<svg xmlns="http://www.w3.org/2000/svg" width="48" height="32" viewBox="0 0 48 32"><defs><clipPath id="2c29a"><path fill="#fff" d="M32 32c-8.836 0-16-7.164-16-16S23.164 0 32 0s16 7.164 16 16-7.164 16-16 16z"/></clipPath><clipPath id="2c29b"><path d="M32 32c-8.836 0-16-7.164-16-16S23.164 0 32 0s16 7.164 16 16-7.164 16-16 16z"/></clipPath></defs><g><g><g><path fill="#475eee" d="M16 32C7.164 32 0 24.836 0 16S7.164 0 16 0s16 7.164 16 16-7.164 16-16 16z"/></g><g><path fill="#fff" d="M8 13a1 1 0 0 1 2 0v7a1 1 0 0 1-2 0z"/></g><g><path fill="#fff" d="M12 17a1 1 0 0 1 2 0v3a1 1 0 0 1-2 0z"/></g><g><g><path fill="#f24949" d="M32 32c-8.836 0-16-7.164-16-16S23.164 0 32 0s16 7.164 16 16-7.164 16-16 16z"/><path fill="none" stroke="#fff" stroke-miterlimit="50" stroke-width="18" d="M32 32c-8.836 0-16-7.164-16-16S23.164 0 32 0s16 7.164 16 16-7.164 16-16 16z" clip-path="url(&quot;#2c29a&quot;)"/></g><g clip-path="url(#2c29b)"><path fill="#fff" d="M32-5a1 1 0 0 1 1-1h21a1 1 0 0 1 1 1v20a1 1 0 0 1-1 1H33a1 1 0 0 1-1-1z"/></g></g></g></g></svg>